<svg width="21" height="20" viewBox="0 0 21 20" fill="none" xmlns="http://www.w3.org/2000/svg">
<path d="M11.09 11L8.79 13.29C8.69627 13.3829 8.62188 13.4935 8.57111 13.6154C8.52034 13.7373 8.4942 13.868 8.4942 14C8.4942 14.132 8.52034 14.2627 8.57111 14.3846C8.62188 14.5064 8.69627 14.617 8.79 14.71C8.88296 14.8037 8.99356 14.8781 9.11542 14.9289C9.23728 14.9796 9.36799 15.0058 9.5 15.0058C9.63201 15.0058 9.76272 14.9796 9.88458 14.9289C10.0064 14.8781 10.117 14.8037 10.21 14.71L14.21 10.71C14.301 10.6149 14.3724 10.5027 14.42 10.38C14.52 10.1365 14.52 9.86344 14.42 9.61998C14.3724 9.49723 14.301 9.38508 14.21 9.28998L10.21 5.28998C10.1168 5.19674 10.0061 5.12278 9.88425 5.07232C9.76243 5.02186 9.63186 4.99589 9.5 4.99589C9.36814 4.99589 9.23757 5.02186 9.11575 5.07232C8.99393 5.12278 8.88324 5.19674 8.79 5.28998C8.69676 5.38322 8.6228 5.49391 8.57234 5.61573C8.52188 5.73755 8.49591 5.86812 8.49591 5.99998C8.49591 6.13184 8.52188 6.26241 8.57234 6.38423C8.6228 6.50605 8.69676 6.61674 8.79 6.70998L11.09 8.99998H1.5C1.23478 8.99998 0.98043 9.10534 0.792893 9.29287C0.605357 9.48041 0.5 9.73476 0.5 9.99998C0.5 10.2652 0.605357 10.5195 0.792893 10.7071C0.98043 10.8946 1.23478 11 1.5 11H11.09ZM10.5 -2.23766e-05C8.63109 -0.00836616 6.79724 0.50719 5.20647 1.48817C3.61569 2.46915 2.33165 3.87629 1.5 5.54998C1.38065 5.78867 1.36101 6.065 1.44541 6.31818C1.5298 6.57135 1.71131 6.78063 1.95 6.89998C2.18869 7.01932 2.46502 7.03896 2.7182 6.95457C2.97137 6.87018 3.18065 6.68867 3.3 6.44998C3.93219 5.1733 4.89383 4.0886 6.08555 3.30797C7.27727 2.52733 8.65582 2.0791 10.0788 2.00957C11.5017 1.94004 12.9174 2.25175 14.1795 2.91249C15.4417 3.57322 16.5045 4.55901 17.2581 5.76797C18.0118 6.97694 18.4289 8.36522 18.4664 9.78936C18.5039 11.2135 18.1605 12.6218 17.4715 13.8688C16.7826 15.1158 15.7731 16.1561 14.5475 16.8824C13.3219 17.6087 11.9246 17.9945 10.5 18C9.00888 18.0064 7.54615 17.5923 6.27969 16.8052C5.01323 16.0181 3.99435 14.8899 3.34 13.55C3.22065 13.3113 3.01137 13.1298 2.7582 13.0454C2.50502 12.961 2.22869 12.9806 1.99 13.1C1.75131 13.2193 1.5698 13.4286 1.48541 13.6818C1.40101 13.935 1.42065 14.2113 1.54 14.45C2.33283 16.0455 3.53752 17.4002 5.02947 18.374C6.52142 19.3478 8.24645 19.9054 10.0261 19.989C11.8058 20.0726 13.5755 19.6792 15.1521 18.8495C16.7288 18.0198 18.0552 16.784 18.9941 15.2698C19.933 13.7556 20.4503 12.0181 20.4925 10.237C20.5347 8.45585 20.1003 6.69577 19.2342 5.13881C18.3682 3.58185 17.1018 2.28454 15.5663 1.38108C14.0307 0.477623 12.2816 0.000814076 10.5 -2.23766e-05Z" fill="white"/>
</svg>
