<svg xmlns="http://www.w3.org/2000/svg" width="105" height="auto" viewBox="0 0 105 104" fill="none">
<path d="M0 104H27.4293L29.4964 99.3634H4.61594L4.61594 4.63663L31.9185 4.63663V0L0 0L0 104Z" fill="#DDDDDD"/>
<path fill-rule="evenodd" clip-rule="evenodd" d="M31.7029 86.2666C32.3243 86.2153 32.9457 86.1438 33.529 86.0522L47.1612 54.4054L46.692 53.5915C45.9438 52.3351 45.0054 51.2122 43.9149 50.2566C43.1286 49.5623 42.2663 48.956 41.3406 48.4508C40.8967 48.2088 40.4402 47.9898 39.971 47.7956C38.2591 47.0977 36.4203 46.7306 34.5688 46.7129C33.846 46.6774 33.1232 46.6691 32.413 46.688C31.8678 46.7026 31.3225 46.7334 30.7772 46.7804C29.7373 46.8676 28.7355 47.1834 27.8351 47.7052L28.4819 46.5637L29.4076 44.8191L31.5 40.8049L33.8714 36.1592L36.2935 31.3339L38.5634 26.7786L40.4402 22.9452L41.721 20.3069C41.8985 19.9991 42.038 19.6742 42.1522 19.3367L31.5634 19.3367L23.7138 35.2573L20.7464 41.301L20.3279 42.1607L18.0833 46.7583L16.0924 50.9311C15.5471 52.058 15.2174 52.7717 15.1033 53.072C14.6214 54.2743 14.2029 55.387 13.8478 56.4093C13.4928 57.4324 13.163 58.47 12.8841 59.5223C12.6051 60.575 12.3514 61.6798 12.1486 62.8363C11.933 63.9944 11.7428 65.3099 11.5652 66.7834L11.5018 67.632C11.4891 68.0836 11.4891 68.5355 11.5145 68.9862L11.5525 69.3549C11.5652 69.7015 11.6159 70.0472 11.6667 70.3914C11.8949 71.9047 12.288 73.3872 12.8333 74.8114C13.4547 76.4012 14.2536 77.9082 15.2428 79.2988L15.8768 80.1486C16.1558 80.494 16.4475 80.8279 16.7518 81.1492C17.4493 81.8873 18.2228 82.5591 19.0471 83.1551C20.6957 84.3254 22.5344 85.1957 24.4746 85.7266C25.692 86.0459 26.9221 86.2492 28.1649 86.3356C29.3442 86.4173 30.5235 86.3944 31.7029 86.2666ZM39.1214 59.7248C38.4873 58.4104 37.4982 57.2958 36.2808 56.4997C34.5815 55.4813 32.654 54.9216 30.6757 54.8758C29.6232 54.7756 28.5707 54.8987 27.5815 55.237C26.6812 55.5488 25.8569 56.0059 25.1087 56.5901C24.3985 57.1529 23.7772 57.8136 23.2446 58.5525C22.75 59.2425 22.3188 59.9747 21.9511 60.7404C21.6341 61.3822 21.3804 62.0548 21.2029 62.7475L21.0634 63.3755L20.9873 64.1665L21.0254 66.6697C21.0634 67.5929 21.1522 68.5126 21.317 69.4212C21.4819 70.3401 21.7609 71.2341 22.154 72.0827C22.5471 72.9471 23.1051 73.7224 23.8025 74.3606C24.6141 75.075 25.5525 75.626 26.567 75.9836C27.9112 76.4407 29.3315 76.6542 30.7645 76.6148C31.9565 76.6684 33.1485 76.4928 34.2772 76.0969C35.2029 75.7638 36.0779 75.2759 36.8388 74.6535C37.1685 74.3819 37.4728 74.0847 37.7518 73.765C37.942 73.5503 38.1196 73.3257 38.2844 73.0916L38.5634 72.6926C38.9819 72.0235 39.337 71.3131 39.6159 70.5722C39.8442 69.9659 40.0217 69.3391 40.1359 68.6997C40.212 68.29 40.25 67.8751 40.2627 67.4587C40.2627 66.3176 40.2246 65.0554 40.1359 63.6711L40.0725 62.9855L39.933 62.157C39.7554 61.3187 39.4891 60.502 39.1214 59.7248Z" fill="#DDDDDD"/>
<path fill-rule="evenodd" clip-rule="evenodd" d="M55.6449 67.3683C55.7083 73.4121 57.6359 78.0728 61.4402 81.3509C64.9022 84.5638 69.4547 86.336 74.1721 86.312C78.9656 86.3641 83.5942 84.5918 87.1322 81.3509C89.1612 79.5143 90.6322 77.2431 91.558 74.537C92.2935 72.4151 92.6866 70.0255 92.7373 67.3683L92.7373 38.3684C92.6105 32.295 90.7464 27.6197 87.1322 24.3416C83.5942 21.1027 78.9529 19.3581 74.1721 19.4709C71.3442 19.4382 68.529 20.0488 65.9674 21.2574L55.6449 45.2106V67.3683ZM83.3659 66.8276L83.3659 38.9553C83.3406 37.905 83.2391 36.9368 83.0616 36.051C82.7826 34.6707 82.3261 33.4902 81.7047 32.5089C80.2083 30.1723 77.6975 28.9684 74.1721 28.897C68.1866 29.0185 65.1304 32.3712 65.0163 38.9553L65.0163 66.8276C65.1304 73.4733 68.1866 76.8259 74.1721 76.8859C80.1196 76.8263 83.1757 73.4737 83.3659 66.8276Z" fill="#DDDDDD"/>
<path d="M75.3514 104H105L105 0L74.3243 0L72.2699 4.63663L100.257 4.63663L100.257 99.3634H75.3514V104Z" fill="#DDDDDD"/>
</svg>