<svg width="14" height="14" viewBox="0 0 14 14" fill="none" xmlns="http://www.w3.org/2000/svg">
<path fill-rule="evenodd" clip-rule="evenodd" d="M6.99992 3.13428L10.8657 7.00004L6.99992 10.8658L3.13416 7.00004L6.99992 3.13428ZM5.20834 7.00004L6.99992 8.79162L8.7915 7.00004L6.99992 5.20846L5.20834 7.00004ZM1.79992 7.00004C1.79992 9.87202 4.12794 12.2 6.99992 12.2C9.8719 12.2 12.1999 9.87202 12.1999 7.00004C12.1999 4.12806 9.8719 1.80004 6.99992 1.80004C4.12794 1.80004 1.79992 4.12806 1.79992 7.00004ZM6.99992 13.6667C3.31792 13.6667 0.333252 10.682 0.333252 7.00004C0.333252 3.31804 3.31792 0.333374 6.99992 0.333374C10.6819 0.333374 13.6666 3.31804 13.6666 7.00004C13.6666 10.682 10.6819 13.6667 6.99992 13.6667Z" fill="#B1B1C3"/>
</svg>
