<svg width="60" height="60" viewBox="0 0 60 60" fill="none" xmlns="http://www.w3.org/2000/svg">
<g clip-path="url(#clip0_122_2130)">
<path d="M45.5643 19.8335C45.1085 19.3741 44.3665 19.371 43.9071 19.8268C43.4477 20.2826 43.4446 21.0247 43.9005 21.4842L43.9075 21.4914C44.1357 21.7215 44.4347 21.8361 44.7342 21.8361C45.0328 21.8361 45.3318 21.7219 45.5613 21.4944C46.0208 21.0385 46.0202 20.2929 45.5643 19.8335Z" fill="white"/>
<path d="M59.6564 33.9259L48.7723 23.0418C48.3147 22.5843 47.5726 22.5843 47.1149 23.0418C46.6573 23.4994 46.6573 24.2414 47.1149 24.6992L55.7554 33.3395H35.1509C33.4416 33.3395 32.0511 31.949 32.0511 30.2398V9.63541L40.3929 17.9771C40.8505 18.4346 41.5925 18.4346 42.0503 17.9771C42.5079 17.5194 42.5079 16.7774 42.0503 16.3197L31.4647 5.73424C31.0071 5.27674 30.2651 5.27674 29.8075 5.73424L11.1254 24.4166C10.6678 24.8742 10.6678 25.6163 11.1254 26.074L39.3171 54.2656C39.5368 54.4853 39.835 54.6088 40.1458 54.6088C40.4565 54.6088 40.7547 54.4853 40.9744 54.2656L59.6565 35.5833C59.8763 35.3635 59.9998 35.0654 59.9998 34.7547C59.9997 34.4439 59.8761 34.1458 59.6564 33.9259ZM29.7076 9.14896V24.0735H14.7831L29.7076 9.14896ZM38.9739 50.6077L14.7831 26.4171H29.7076V30.2398C29.7076 33.2413 32.1496 35.6833 35.1511 35.6833H38.9739V50.6077ZM41.3175 50.6078V35.6833H56.2419L41.3175 50.6078Z" fill="white"/>
<path d="M8.0427 29.7655H1.17188C0.524649 29.7655 0 30.2903 0 30.9374C0 31.5845 0.524649 32.1093 1.17188 32.1093H8.0427C8.68992 32.1093 9.21457 31.5846 9.21457 30.9374C9.21457 30.2903 8.68992 29.7655 8.0427 29.7655Z" fill="white"/>
<path d="M11.5371 29.7655H11.5195C10.8723 29.7655 10.3477 30.2903 10.3477 30.9374C10.3477 31.5845 10.8723 32.1093 11.5195 32.1093H11.5371C12.1843 32.1093 12.709 31.5845 12.709 30.9374C12.709 30.2903 12.1843 29.7655 11.5371 29.7655Z" fill="white"/>
<path d="M4.9232 17.4612H1.17285C0.525625 17.4612 0.000976562 17.9859 0.000976562 18.6331C0.000976562 19.2802 0.525625 19.8049 1.17285 19.8049H4.9232C5.57043 19.8049 6.09508 19.2802 6.09508 18.6331C6.09508 17.9859 5.57043 17.4612 4.9232 17.4612Z" fill="white"/>
<path d="M13.1849 17.4612H8.75195C8.10473 17.4612 7.58008 17.9859 7.58008 18.6331C7.58008 19.2802 8.10473 19.8049 8.75195 19.8049H13.1849C13.8321 19.8049 14.3568 19.2802 14.3568 18.6331C14.3568 17.9859 13.8321 17.4612 13.1849 17.4612Z" fill="white"/>
<path d="M15.7362 36.2107H9.17383C8.5266 36.2107 8.00195 36.7355 8.00195 37.3826C8.00195 38.0297 8.5266 38.5544 9.17383 38.5544H15.7362C16.3834 38.5544 16.9081 38.0297 16.9081 37.3826C16.9081 36.7355 16.3833 36.2107 15.7362 36.2107Z" fill="white"/>
<path d="M20.8602 43.7104H4.33691C3.68969 43.7104 3.16504 44.2352 3.16504 44.8823C3.16504 45.5294 3.68969 46.0542 4.33691 46.0542H20.8602C21.5075 46.0542 22.0321 45.5294 22.0321 44.8823C22.0321 44.2352 21.5075 43.7104 20.8602 43.7104Z" fill="white"/>
</g>
<defs>
<clipPath id="clip0_122_2130">
<rect width="60" height="60" fill="white"/>
</clipPath>
</defs>
</svg>
