<svg width="219" height="37" viewBox="0 0 219 37" fill="#000000" xmlns="http://www.w3.org/2000/svg">
<g clip-path="url(#clip0_31_15202)">
<path d="M52.3512 15.2883C52.4974 15.568 52.7151 15.8048 52.9823 15.9748C53.3734 16.2282 53.7982 16.4263 54.2444 16.5632C54.7805 16.7432 55.4611 16.9312 56.2862 17.1271C57.1063 17.3284 57.9123 17.5823 58.6993 17.8871C59.3343 18.1263 59.9241 18.4703 60.4438 18.9046C60.8932 19.2884 61.2523 19.7654 61.4957 20.3021C61.7472 20.8952 61.8696 21.5343 61.8548 22.1777C61.8686 22.9295 61.7138 23.6749 61.4016 24.3598C61.1083 24.986 60.6774 25.5389 60.1407 25.978C59.5672 26.4377 58.9073 26.7794 58.1995 26.9832C57.3907 27.2194 56.5512 27.3351 55.7082 27.3265C54.4025 27.3312 53.1065 27.1028 51.8821 26.6522C50.6316 26.183 49.4835 25.4798 48.5 24.5806L50.3267 22.423C51.0898 23.0932 51.9461 23.6506 52.8693 24.078C53.7875 24.4749 54.7808 24.6713 55.7821 24.6542C56.7201 24.6542 57.4648 24.458 58.0161 24.0657C58.278 23.8908 58.4911 23.653 58.6356 23.3744C58.7802 23.0958 58.8516 22.7854 58.8431 22.4721C58.8479 22.1862 58.7931 21.9024 58.6822 21.6385C58.5497 21.3643 58.3443 21.1312 58.0882 20.9643C57.7197 20.7208 57.3202 20.5271 56.9003 20.3881C56.2545 20.1671 55.5979 19.9788 54.9328 19.8242C54.0981 19.6378 53.2757 19.4003 52.4705 19.1131C51.8179 18.8874 51.2074 18.556 50.6638 18.1324C50.1857 17.7513 49.8042 17.2643 49.5499 16.7103C49.277 16.0671 49.1462 15.3731 49.1665 14.6753C49.1566 13.9687 49.3071 13.269 49.607 12.6281C49.8951 12.0226 50.308 11.4838 50.8189 11.0467C51.3632 10.5887 51.9939 10.2428 52.6741 10.0292C53.4391 9.78581 54.2383 9.66578 55.0415 9.67368C56.205 9.6566 57.3623 9.84334 58.4604 10.2253C59.4919 10.6041 60.4548 11.1465 61.3116 11.8313L59.6823 14.1114C58.9599 13.5771 58.1718 13.1364 57.3373 12.7998C56.5914 12.5028 55.7957 12.3489 54.9922 12.3462C54.1036 12.3462 53.4124 12.5464 52.9187 12.9469C52.6895 13.1161 52.5032 13.336 52.3746 13.5893C52.246 13.8425 52.1788 14.1221 52.1781 14.4057C52.1699 14.709 52.229 15.0103 52.3512 15.2883Z" fill="black"/>
<path d="M83.5514 21.9081C83.1209 22.966 82.4832 23.9285 81.6754 24.7399C80.8229 25.5913 79.8065 26.2634 78.6869 26.7162C77.5673 27.1691 76.3673 27.3933 75.1585 27.3756C73.9056 27.3912 72.6626 27.1534 71.5051 26.6768C70.4453 26.2416 69.4842 25.5997 68.6786 24.789C67.873 23.9783 67.2393 23.0153 66.815 21.9571C65.9263 19.7539 65.9263 17.2953 66.815 15.0921C67.2454 14.0341 67.8831 13.0716 68.691 12.2603C69.5435 11.409 70.5598 10.7368 71.6794 10.284C72.799 9.83117 73.999 9.60692 75.2078 9.62463C76.4607 9.60912 77.7036 9.84685 78.8611 10.3234C79.921 10.7586 80.8821 11.4005 81.6878 12.2112C82.4934 13.0219 83.1271 13.9848 83.5514 15.0431C84.4402 17.2463 84.4402 19.7049 83.5514 21.9081ZM80.6016 16.1586C80.3278 15.438 79.9172 14.7763 79.3921 14.2095C78.8663 13.6487 78.2325 13.1985 77.5283 12.8855C76.7827 12.5641 75.9788 12.3972 75.166 12.3951C74.3531 12.393 73.5484 12.5557 72.8011 12.8733C72.1054 13.1776 71.4796 13.6198 70.962 14.1727C70.4418 14.7363 70.0354 15.3938 69.7648 16.1096C69.1888 17.6351 69.1888 19.3161 69.7648 20.8416C70.0383 21.5624 70.4489 22.2242 70.9744 22.7907C71.4999 23.3518 72.1337 23.8021 72.8381 24.1148C73.5837 24.4362 74.3876 24.603 75.2004 24.6051C76.0133 24.6072 76.818 24.4445 77.5653 24.127C78.261 23.8227 78.8868 23.3805 79.4044 22.8276C79.9245 22.2639 80.3309 21.6063 80.6016 20.8906C81.1776 19.3652 81.1776 17.6841 80.6016 16.1586Z" fill="black"/>
<path d="M89.3789 10.2773L92.3905 8.84338V24.3599H101.475V27.0814H89.3789V10.2773Z" fill="black"/>
<path d="M121.79 21.9081C121.359 22.966 120.721 23.9285 119.914 24.7399C119.061 25.5912 118.045 26.2633 116.925 26.7162C115.805 27.169 114.606 27.3932 113.397 27.3755C112.144 27.3911 110.901 27.1533 109.743 26.6767C108.684 26.2416 107.722 25.5996 106.917 24.7889C106.111 23.9782 105.478 23.0153 105.053 21.9571C104.165 19.7539 104.165 17.2953 105.053 15.0921C105.484 14.0341 106.121 13.0715 106.929 12.2603C107.782 11.4089 108.798 10.7368 109.918 10.284C111.037 9.83116 112.237 9.60692 113.446 9.62463C114.699 9.60912 115.942 9.84686 117.099 10.3234C118.159 10.7586 119.12 11.4005 119.926 12.2112C120.732 13.0219 121.365 13.9848 121.79 15.0431C122.678 17.2463 122.678 19.7049 121.79 21.9081V21.9081ZM118.84 16.1586C118.566 15.4379 118.155 14.7762 117.63 14.2094C117.104 13.6487 116.471 13.1985 115.766 12.8855C115.021 12.564 114.217 12.3972 113.404 12.3951C112.591 12.393 111.787 12.5557 111.039 12.8732C110.344 13.1776 109.718 13.6197 109.2 14.1726C108.68 14.7362 108.273 15.3938 108.003 16.1096C107.427 17.635 107.427 19.3161 108.003 20.8415C108.276 21.5624 108.687 22.2241 109.212 22.7907C109.738 23.3517 110.372 23.802 111.076 24.1147C111.822 24.4361 112.626 24.603 113.439 24.6051C114.251 24.6072 115.056 24.4445 115.803 24.1269C116.499 23.8226 117.125 23.3805 117.643 22.8275C118.163 22.2638 118.569 21.6063 118.84 20.8906C119.416 19.3651 119.416 17.684 118.84 16.1586Z" fill="black"/>
<path d="M139.218 15.2883C139.365 15.568 139.582 15.8047 139.849 15.9748C140.241 16.2282 140.665 16.4263 141.112 16.5632C141.648 16.7432 142.328 16.9312 143.153 17.1271C143.973 17.3284 144.779 17.5823 145.566 17.8871C146.201 18.1263 146.791 18.4703 147.311 18.9047C147.76 19.2884 148.119 19.7654 148.363 20.3021C148.614 20.8952 148.737 21.5343 148.722 22.1777C148.736 22.9295 148.581 23.6749 148.269 24.3598C147.975 24.986 147.544 25.5389 147.008 25.978C146.434 26.4377 145.774 26.7794 145.066 26.9832C144.258 27.2194 143.418 27.3351 142.575 27.3265C141.27 27.3312 139.974 27.1029 138.749 26.6522C137.499 26.183 136.351 25.4797 135.367 24.5805L137.194 22.4229C137.957 23.0931 138.813 23.6506 139.736 24.078C140.655 24.4749 141.648 24.6714 142.649 24.6542C143.587 24.6542 144.332 24.458 144.883 24.0657C145.145 23.8908 145.358 23.653 145.503 23.3744C145.647 23.0958 145.719 22.7854 145.71 22.4721C145.715 22.1862 145.66 21.9024 145.549 21.6386C145.417 21.3643 145.211 21.1312 144.955 20.9643C144.587 20.7209 144.187 20.5271 143.767 20.3881C143.122 20.1671 142.465 19.9788 141.8 19.8242C140.965 19.6378 140.143 19.4003 139.338 19.1131C138.685 18.8874 138.075 18.556 137.531 18.1324C137.053 17.7513 136.671 17.2643 136.417 16.7103C136.144 16.0671 136.013 15.3731 136.034 14.6754C136.024 13.9687 136.174 13.269 136.474 12.6281C136.762 12.0226 137.175 11.4839 137.686 11.0467C138.23 10.5887 138.861 10.2429 139.541 10.0292C140.306 9.78582 141.105 9.6658 141.909 9.67369C143.072 9.65657 144.23 9.84331 145.328 10.2253C146.359 10.6041 147.322 11.1464 148.179 11.8313L146.55 14.1114C145.827 13.5771 145.039 13.1363 144.205 12.7998C143.459 12.5028 142.663 12.3489 141.859 12.3462C140.971 12.3462 140.28 12.5464 139.786 12.9469C139.557 13.116 139.371 13.336 139.242 13.5893C139.113 13.8425 139.046 14.1221 139.045 14.4057C139.037 14.709 139.096 15.0103 139.218 15.2883Z" fill="black"/>
<path d="M157.953 9.91882V27.0814H154.941V11.7112L157.953 9.91882Z" fill="black"/>
<path d="M176.343 27.0814L171.801 20.5841L167.235 27.0814H163.754L170.049 18.353L164.001 9.91882H167.58L171.875 16.0728L176.195 9.91882H179.676L173.653 18.3039L179.923 27.0814H176.343Z" fill="black"/>
<path d="M192.834 27.0814H189.773V12.7139H184.293V9.91882H198.314V12.7139H192.834V27.0814Z" fill="black"/>
<path d="M212.134 27.0814H209.073V20.3145L202.211 9.91882H205.79L210.629 17.5193L215.516 9.91882H218.997L212.134 20.2408V27.0814Z" fill="black"/>
<path d="M28.4626 23.0589V14.4389C28.4063 12.4024 27.4466 11.3655 25.5835 11.3282C23.7108 11.3658 22.7559 12.4027 22.7188 14.4389V23.0589C22.7557 25.1142 23.7106 26.1511 25.5835 26.1696C27.4466 26.1512 28.4063 25.1143 28.4626 23.0589Z" fill="black"/>
<path d="M14.6102 20.8623C14.4092 20.4558 14.1011 20.1111 13.7185 19.8649C13.1869 19.5499 12.5822 19.3769 11.9634 19.3626C11.6359 19.3316 11.3056 19.3697 10.994 19.4744C10.7152 19.5708 10.4542 19.7122 10.2216 19.8928C9.99953 20.0669 9.80326 20.2712 9.63865 20.4998C9.48337 20.7132 9.34706 20.9396 9.23124 21.1764C9.13279 21.3748 9.05524 21.5829 8.99982 21.7971C8.96008 21.9404 8.93655 22.0875 8.92969 22.236C8.92969 22.4687 8.93431 22.7268 8.94355 23.0102C8.95305 23.2957 8.98365 23.5801 9.03511 23.8611C9.08647 24.1452 9.17367 24.4217 9.29466 24.6842C9.41796 24.9516 9.59475 25.1913 9.81428 25.3887C10.0671 25.6096 10.3604 25.78 10.6782 25.8906C11.1009 26.0319 11.5454 26.098 11.9912 26.0858C12.3656 26.1025 12.7398 26.0481 13.0938 25.9256C13.384 25.8226 13.6546 25.6717 13.8943 25.4793C14.1061 25.3073 14.2885 25.1025 14.4345 24.8728C14.5666 24.6659 14.6772 24.4461 14.7646 24.217C14.837 24.0296 14.8911 23.8357 14.9263 23.638C14.9495 23.5112 14.9636 23.3829 14.9683 23.2542C14.9683 22.9013 14.9543 22.5108 14.9263 22.0828C14.8995 21.6598 14.7922 21.2456 14.6102 20.8623Z" fill="black"/>
<path d="M0 0V37H37.6135V0H0ZM10.9497 34.5552H2.36043V2.39141H12.3548V3.82533H3.80414V33.1213H11.5968L10.9497 34.5552ZM12.8583 29.0045C12.6739 29.0328 12.4827 29.0549 12.2848 29.0708C11.527 29.1524 10.7606 29.0957 10.0233 28.9038C9.41434 28.7396 8.83919 28.4704 8.32403 28.1086C7.86201 27.7799 7.45859 27.3768 7.13045 26.9159C6.82323 26.4859 6.5708 26.0197 6.37893 25.5281C6.20535 25.0877 6.08281 24.6291 6.01368 24.1612C5.95432 23.7922 5.94256 23.4172 5.9787 23.0453C6.03497 22.5896 6.0958 22.1828 6.1612 21.8246C6.2269 21.4669 6.30414 21.1252 6.39292 20.7997C6.48171 20.4742 6.58225 20.1533 6.69456 19.8369C6.80715 19.5207 6.9384 19.1767 7.08832 18.8048C7.12513 18.712 7.22799 18.4912 7.3969 18.1427C7.56546 17.7939 7.77371 17.3637 8.02166 16.8522C8.26961 16.341 8.54811 15.7784 8.85718 15.1644C9.16613 14.5507 9.47521 13.9277 9.78441 13.2953C10.5145 11.8259 11.3337 10.1847 12.2419 8.37162H15.5568C15.5228 8.47592 15.478 8.57647 15.4233 8.67167C15.3247 8.87139 15.1913 9.14336 15.023 9.48756C14.854 9.83162 14.6573 10.2268 14.4329 10.6731C14.208 11.1194 13.9716 11.589 13.7237 12.0819C13.4757 12.5748 13.223 13.0722 12.9654 13.5742C12.7077 14.0765 12.4596 14.5554 12.2212 15.011C11.9823 15.4666 11.7645 15.8804 11.5679 16.2524C11.3716 16.6245 11.2078 16.9221 11.0767 17.145C11.3584 16.9837 11.6723 16.886 11.9963 16.859C12.3911 16.8255 12.7877 16.8186 13.1834 16.8382C13.7635 16.8436 14.3375 16.9572 14.8754 17.173C15.7525 17.5312 16.4908 18.1595 16.9818 18.9654C17.033 19.05 17.0817 19.1335 17.128 19.2172L12.8583 29.0045ZM21.5966 27.5505C20.4074 26.5368 19.8034 25.0953 19.7847 23.2262V16.3735L23.0165 8.96554C23.82 8.5918 24.698 8.40298 25.5852 8.41314C27.0826 8.37823 28.536 8.91771 29.6433 9.91947C30.7759 10.9332 31.3611 12.3792 31.3988 14.2574V23.2262C31.3609 25.0957 30.7758 26.5371 29.6433 27.5505C28.5344 28.5528 27.0845 29.101 25.5852 29.0848C24.1082 29.0923 22.6831 28.5442 21.5965 27.5505H21.5966ZM35.238 34.5552H25.9528V33.1213H33.7538V3.82533H24.9877L25.6349 2.39141H35.2379L35.238 34.5552Z" fill="black"/>
</g>
<defs>
<clipPath id="clip0_31_15202">
<rect width="219" height="37" fill="#000000"/>
</clipPath>
</defs>
</svg>
