<svg width="16" height="14" viewBox="0 0 16 14" fill="none" xmlns="http://www.w3.org/2000/svg">
<path d="M2.00008 12.6666V3.79997C2.00004 3.66312 2.04212 3.52957 2.12059 3.41746C2.19907 3.30535 2.31015 3.22011 2.43875 3.1733L8.88608 0.829304C8.93644 0.810975 8.99048 0.805059 9.04362 0.81206C9.09676 0.81906 9.14742 0.83877 9.19132 0.869518C9.23521 0.900265 9.27105 0.941145 9.29579 0.988689C9.32052 1.03623 9.33343 1.08904 9.33341 1.14264V4.44464L13.5441 5.84797C13.6769 5.8922 13.7924 5.97712 13.8742 6.09067C13.9561 6.20423 14.0001 6.34066 14.0001 6.48064V12.6666H15.3334V14H0.666748V12.6666H2.00008ZM3.33341 12.6666H8.00008V2.56997L3.33341 4.2673V12.6666ZM12.6667 12.6666V6.9613L9.33341 5.84997V12.6666H12.6667Z" fill="#B1B1C4"/>
</svg>
