<svg width="16" height="13" viewBox="0 0 16 13" fill="none" xmlns="http://www.w3.org/2000/svg">
<path d="M3.33341 5.00004C3.51023 5.00004 3.67979 5.07028 3.80482 5.1953C3.92984 5.32033 4.00008 5.4899 4.00008 5.66671C5.04751 5.66516 6.06473 6.01755 6.88675 6.66671H8.33341C9.22208 6.66671 10.0201 7.05337 10.5694 7.66671H12.6667C13.2969 7.66653 13.9142 7.845 14.4471 8.1814C14.98 8.51781 15.4066 8.99838 15.6774 9.56737C14.1007 11.648 11.5481 13 8.66675 13C6.80675 13 5.23341 12.598 3.96008 11.8947C3.91344 12.0234 3.82824 12.1346 3.71609 12.2131C3.60394 12.2916 3.47031 12.3336 3.33341 12.3334H1.33341C1.1566 12.3334 0.987034 12.2631 0.86201 12.1381C0.736986 12.0131 0.666748 11.8435 0.666748 11.6667V5.66671C0.666748 5.4899 0.736986 5.32033 0.86201 5.1953C0.987034 5.07028 1.1566 5.00004 1.33341 5.00004H3.33341ZM4.00075 7.00004L4.00008 10.348L4.03008 10.3694C5.22675 11.2094 6.78541 11.6667 8.66675 11.6667C10.6694 11.6667 12.5327 10.896 13.8901 9.58004L13.9787 9.49137L13.8987 9.42471C13.5839 9.17815 13.2024 9.03183 12.8034 9.00471L12.6667 9.00004H11.2594C11.3074 9.21471 11.3334 9.43737 11.3334 9.66671V10.3334H5.33341V9.00004L9.86008 8.99937L9.83741 8.94737C9.70965 8.6804 9.51313 8.45225 9.26803 8.28635C9.02292 8.12045 8.73808 8.02278 8.44275 8.00337L8.33341 8.00004H6.38008C6.07029 7.68319 5.70026 7.4315 5.29176 7.25976C4.88326 7.08803 4.44454 6.99972 4.00141 7.00004H4.00075ZM2.66675 6.33337H2.00008V11H2.66675V6.33337ZM12.0001 2.33337C12.5305 2.33337 13.0392 2.54409 13.4143 2.91916C13.7894 3.29423 14.0001 3.80294 14.0001 4.33337C14.0001 4.86381 13.7894 5.37252 13.4143 5.74759C13.0392 6.12266 12.5305 6.33337 12.0001 6.33337C11.4696 6.33337 10.9609 6.12266 10.5859 5.74759C10.2108 5.37252 10.0001 4.86381 10.0001 4.33337C10.0001 3.80294 10.2108 3.29423 10.5859 2.91916C10.9609 2.54409 11.4696 2.33337 12.0001 2.33337ZM12.0001 3.66671C11.8233 3.66671 11.6537 3.73695 11.5287 3.86197C11.4037 3.98699 11.3334 4.15656 11.3334 4.33337C11.3334 4.51019 11.4037 4.67975 11.5287 4.80478C11.6537 4.9298 11.8233 5.00004 12.0001 5.00004C12.1769 5.00004 12.3465 4.9298 12.4715 4.80478C12.5965 4.67975 12.6667 4.51019 12.6667 4.33337C12.6667 4.15656 12.5965 3.98699 12.4715 3.86197C12.3465 3.73695 12.1769 3.66671 12.0001 3.66671ZM7.33341 0.333374C7.86385 0.333374 8.37256 0.544088 8.74763 0.919161C9.1227 1.29423 9.33341 1.80294 9.33341 2.33337C9.33341 2.86381 9.1227 3.37251 8.74763 3.74759C8.37256 4.12266 7.86385 4.33337 7.33341 4.33337C6.80298 4.33337 6.29427 4.12266 5.9192 3.74759C5.54413 3.37251 5.33341 2.86381 5.33341 2.33337C5.33341 1.80294 5.54413 1.29423 5.9192 0.919161C6.29427 0.544088 6.80298 0.333374 7.33341 0.333374ZM7.33341 1.66671C7.1566 1.66671 6.98703 1.73695 6.86201 1.86197C6.73699 1.98699 6.66675 2.15656 6.66675 2.33337C6.66675 2.51019 6.73699 2.67975 6.86201 2.80478C6.98703 2.9298 7.1566 3.00004 7.33341 3.00004C7.51023 3.00004 7.67979 2.9298 7.80482 2.80478C7.92984 2.67975 8.00008 2.51019 8.00008 2.33337C8.00008 2.15656 7.92984 1.98699 7.80482 1.86197C7.67979 1.73695 7.51023 1.66671 7.33341 1.66671Z" fill="#B1B1C4"/>
</svg>
