<svg width="12" height="14" viewBox="0 0 12 14" fill="none" xmlns="http://www.w3.org/2000/svg">
<path d="M5.527 8.77336C5.40383 8.89754 5.3344 9.06514 5.33366 9.24003C5.33383 9.32939 5.35197 9.41781 5.387 9.50003C5.44718 9.6413 5.55428 9.75746 5.69021 9.82889C5.82614 9.90033 5.98256 9.92264 6.13304 9.89208C6.28352 9.86151 6.41883 9.77993 6.51612 9.66113C6.61341 9.54233 6.6667 9.39358 6.667 9.24003C6.66626 9.06514 6.59683 8.89754 6.47366 8.77336C6.41169 8.71088 6.33795 8.66128 6.25671 8.62743C6.17547 8.59359 6.08834 8.57616 6.00033 8.57616C5.91232 8.57616 5.82518 8.59359 5.74394 8.62743C5.6627 8.66128 5.58897 8.71088 5.527 8.77336ZM11.087 1.44003C11.0095 1.37738 10.919 1.33288 10.8221 1.3098C10.7252 1.28673 10.6244 1.28567 10.527 1.3067C9.81462 1.45599 9.07922 1.45789 8.36608 1.31228C7.65295 1.16668 6.97716 0.876638 6.38033 0.460029C6.26873 0.382611 6.13615 0.341125 6.00033 0.341125C5.86451 0.341125 5.73193 0.382611 5.62033 0.460029C5.023 0.875496 4.34698 1.16435 3.63385 1.3088C2.92073 1.45326 2.18559 1.45028 1.47366 1.30003C1.37629 1.279 1.27544 1.28006 1.17853 1.30314C1.08162 1.32621 0.991113 1.37071 0.913663 1.43336C0.836316 1.49611 0.77401 1.57539 0.731324 1.66537C0.688638 1.75536 0.666657 1.85377 0.666996 1.95336V6.92003C0.666403 7.87586 0.894178 8.818 1.33135 9.668C1.76853 10.518 2.40245 11.2512 3.18033 11.8067L5.61366 13.54C5.72657 13.6204 5.86173 13.6636 6.00033 13.6636C6.13893 13.6636 6.27409 13.6204 6.387 13.54L8.82033 11.8067C9.59821 11.2512 10.2321 10.518 10.6693 9.668C11.1065 8.818 11.3343 7.87586 11.3337 6.92003V1.95336C11.334 1.85377 11.312 1.75536 11.2693 1.66537C11.2266 1.57539 11.1643 1.49611 11.087 1.43336V1.44003ZM10.0003 6.92003C10.0008 7.6632 9.82385 8.39575 9.4841 9.05671C9.14434 9.71767 8.65164 10.2879 8.047 10.72L6.00033 12.18L3.95366 10.72C3.34902 10.2879 2.85632 9.71767 2.51656 9.05671C2.17681 8.39575 1.99982 7.6632 2.00033 6.92003V2.72003C3.39795 2.83965 4.79769 2.51538 6.00033 1.79336C7.20297 2.51538 8.60271 2.83965 10.0003 2.72003V6.92003ZM6.00033 3.9067C5.64904 3.90647 5.30388 3.99878 4.9996 4.17432C4.69532 4.34987 4.44264 4.60247 4.267 4.9067C4.18729 5.05906 4.16954 5.23632 4.21745 5.40146C4.26536 5.5666 4.37522 5.70684 4.52409 5.79289C4.67296 5.87894 4.84932 5.90414 5.01633 5.86324C5.18334 5.82233 5.32808 5.71847 5.42033 5.57336C5.47879 5.47211 5.56284 5.38802 5.66406 5.32951C5.76528 5.27101 5.88011 5.24015 5.99702 5.24003C6.11393 5.23992 6.22882 5.27055 6.33015 5.32886C6.43149 5.38716 6.51571 5.47109 6.57436 5.57222C6.63302 5.67335 6.66405 5.78813 6.66434 5.90505C6.66463 6.02196 6.63417 6.13689 6.57602 6.23831C6.51786 6.33973 6.43406 6.42408 6.33302 6.48289C6.23197 6.5417 6.11724 6.5729 6.00033 6.57336C5.82352 6.57336 5.65395 6.6436 5.52892 6.76862C5.4039 6.89365 5.33366 7.06322 5.33366 7.24003C5.33366 7.41684 5.4039 7.58641 5.52892 7.71143C5.65395 7.83646 5.82352 7.9067 6.00033 7.9067C6.53076 7.9067 7.03947 7.69598 7.41454 7.32091C7.78962 6.94584 8.00033 6.43713 8.00033 5.9067C8.00033 5.37626 7.78962 4.86756 7.41454 4.49248C7.03947 4.11741 6.53076 3.9067 6.00033 3.9067Z" fill="white" fill-opacity="0.4"/>
</svg>
