<svg width="14" height="12" viewBox="0 0 14 12" fill="none" xmlns="http://www.w3.org/2000/svg">
<path d="M0.333252 0.662C0.334472 0.486919 0.404519 0.319345 0.528261 0.195478C0.652002 0.071612 0.819505 0.00139643 0.994585 0H13.0053C13.3706 0 13.6666 0.296667 13.6666 0.662V11.338C13.6654 11.5131 13.5953 11.6807 13.4716 11.8045C13.3478 11.9284 13.1803 11.9986 13.0053 12H0.994585C0.819128 11.9998 0.650917 11.93 0.526912 11.8059C0.402907 11.6817 0.333252 11.5135 0.333252 11.338V0.662ZM6.33325 1.33333H1.66659V10.6667H6.33325V1.33333ZM7.66659 1.33333V10.6667H12.3333V1.33333H7.66659ZM8.33325 2.66667H11.6666V4H8.33325V2.66667ZM8.33325 4.66667H11.6666V6H8.33325V4.66667Z" fill="#B1B1C4"/>
</svg>
