<svg width="12" height="14" viewBox="0 0 12 14" fill="none" xmlns="http://www.w3.org/2000/svg">
<path d="M6.00003 10.3334C8.44136 10.3334 10.5767 11.3834 11.738 12.95L10.51 13.5307C9.5647 12.4107 7.89803 11.6667 6.00003 11.6667C4.10203 11.6667 2.43536 12.4107 1.49003 13.5307L0.262695 12.9494C1.42403 11.3827 3.5587 10.3334 6.00003 10.3334ZM6.00003 0.333374C6.88408 0.333374 7.73193 0.684563 8.35705 1.30968C8.98217 1.93481 9.33336 2.78265 9.33336 3.66671V5.66671C9.33336 6.55076 8.98217 7.39861 8.35705 8.02373C7.73193 8.64885 6.88408 9.00004 6.00003 9.00004C5.11597 9.00004 4.26813 8.64885 3.64301 8.02373C3.01788 7.39861 2.6667 6.55076 2.6667 5.66671V3.66671C2.6667 2.78265 3.01788 1.93481 3.64301 1.30968C4.26813 0.684563 5.11597 0.333374 6.00003 0.333374Z" fill="#B1B1C4"/>
</svg>
